<?xml version="1.0" encoding="UTF-8" standalone="no"?>
<!-- Created with Inkscape (http://www.inkscape.org/) -->

<svg
   width="96.221962mm"
   height="116.54063mm"
   viewBox="0 0 96.221962 116.54063"
   version="1.1"
   id="svg5"
   inkscape:version="1.1.2 (0a00cf5339, 2022-02-04)"
   sodipodi:docname="Lattes.svg"
   xmlns:inkscape="http://www.inkscape.org/namespaces/inkscape"
   xmlns:sodipodi="http://sodipodi.sourceforge.net/DTD/sodipodi-0.dtd"
   xmlns="http://www.w3.org/2000/svg"
   xmlns:svg="http://www.w3.org/2000/svg">
  <sodipodi:namedview
     id="namedview7"
     pagecolor="#ffffff"
     bordercolor="#666666"
     borderopacity="1.0"
     inkscape:pageshadow="2"
     inkscape:pageopacity="0.0"
     inkscape:pagecheckerboard="0"
     inkscape:document-units="mm"
     showgrid="false"
     inkscape:zoom="0.94786756"
     inkscape:cx="-291.17992"
     inkscape:cy="186.20745"
     inkscape:window-width="1322"
     inkscape:window-height="704"
     inkscape:window-x="44"
     inkscape:window-y="27"
     inkscape:window-maximized="1"
     inkscape:current-layer="layer1" />
  <defs
     id="defs2" />
  <g
     inkscape:label="Camada 1"
     inkscape:groupmode="layer"
     id="layer1"
     transform="translate(-156.05271,-109.30095)">
    <path
       style="fill:#b7eadc;fill-opacity:1;stroke-width:0.264583"
       d="m 177.44788,223.43447 c -0.5045,-1.3239 -1.64077,-4.3121 -2.52505,-6.64043 -0.88428,-2.32833 -1.71906,-4.47146 -1.85508,-4.7625 -0.13601,-0.29104 -1.81686,-4.69635 -3.73524,-9.78958 -1.91837,-5.09323 -4.37564,-11.58214 -5.4606,-14.41979 -1.08496,-2.83766 -2.13236,-5.63563 -2.32755,-6.21771 -0.19519,-0.58209 -0.8979,-2.46892 -1.56157,-4.19297 -0.66367,-1.72404 -1.20667,-3.2573 -1.20667,-3.40725 0,-0.29914 1.82586,-0.0892 2.59124,0.2979 0.57503,0.29085 2.81891,0.86142 4.02334,1.02305 0.50933,0.0684 1.04511,0.21576 1.19063,0.32758 0.14552,0.11183 0.80036,0.28977 1.45521,0.39544 0.65484,0.10566 1.30968,0.28164 1.4552,0.39105 0.14553,0.10942 0.74084,0.26838 1.32292,0.35325 0.58208,0.0849 2.18943,0.39704 3.57188,0.69372 1.38244,0.29667 2.93621,0.54097 3.45281,0.54288 0.5166,0.002 1.05238,0.1129 1.19062,0.24665 0.26783,0.25911 1.16743,0.34272 8.85032,0.82256 8.44347,0.52736 13.41751,0.33276 19.72197,-0.77155 6.05151,-1.06001 12.83296,-3.38338 17.22357,-5.90091 4.63074,-2.65522 7.56313,-5.28027 9.99267,-8.94536 2.15855,-3.2563 2.73766,-4.75853 3.35094,-8.69247 0.61505,-3.94533 -0.50139,-9.70358 -3.08546,-15.91378 -0.50786,-1.22051 -0.95016,-4.02604 -0.67768,-4.29851 0.32194,-0.32194 1.38208,0.33289 2.42277,1.4965 0.50885,0.56895 1.76334,1.93817 2.78777,3.04271 2.01339,2.17086 3.93308,4.4632 4.76143,5.68571 0.28585,0.42187 0.69832,1.03083 0.9166,1.35325 0.21828,0.32241 0.73388,1.16787 1.14576,1.8788 0.41189,0.71092 0.85806,1.47118 0.99149,1.68946 0.74465,1.21821 2.25243,4.66943 2.92444,6.69387 1.5395,4.63777 1.97342,7.65113 1.91265,13.28217 -0.0582,5.39381 -0.93993,8.66155 -4.21207,15.61041 -2.80886,5.96507 -5.94053,10.21056 -11.52263,15.62084 -2.94915,2.85838 -7.33091,6.47187 -7.84787,6.47187 -0.14317,0 -0.4105,0.18097 -0.59406,0.40215 -0.28926,0.34853 -5.09099,3.3645 -6.81478,4.28037 -2.11069,1.12142 -5.9323,3.03347 -6.93918,3.47184 -0.65484,0.28511 -1.905,0.83927 -2.77812,1.23148 -7.62741,3.42623 -19.69025,6.76532 -31.94352,8.84222 l -1.25184,0.21219 z m 17.70845,-46.62442 c -1.16417,-0.2065 -2.77151,-0.5036 -3.57188,-0.66023 -3.26767,-0.63948 -6.7551,-1.2756 -9.26041,-1.68914 -0.50933,-0.0841 -1.58089,-0.26108 -2.38125,-0.39336 -0.80037,-0.13228 -2.52677,-0.43749 -3.83646,-0.67824 -1.30969,-0.24076 -2.91703,-0.53284 -3.57188,-0.64909 -0.65484,-0.11624 -2.32172,-0.41354 -3.70416,-0.66067 -1.38245,-0.24712 -3.04933,-0.50323 -3.70417,-0.56913 -0.65485,-0.0659 -1.42875,-0.21826 -1.71979,-0.33858 -0.29104,-0.12032 -1.34869,-0.34426 -2.35032,-0.49765 -1.00163,-0.15338 -1.92121,-0.37895 -2.04351,-0.50124 -0.12229,-0.1223 -0.40175,-1.11253 -0.62101,-2.20052 -0.21926,-1.08799 -0.64116,-3.16878 -0.93755,-4.62399 -1.315,-6.45628 -1.77999,-16.29016 -1.06965,-22.62188 0.30525,-2.72087 1.32629,-7.22333 2.14947,-9.47848 0.58313,-1.59752 3.00976,-6.3141 3.57391,-6.94651 0.20494,-0.22974 0.37262,-0.50668 0.37262,-0.61541 0,-0.66287 4.88665,-6.08663 6.58933,-7.3136 0.49544,-0.35701 1.31887,-0.97923 1.82984,-1.3827 0.51098,-0.40347 1.20695,-0.80333 1.54661,-0.88858 0.33965,-0.0853 0.61755,-0.24105 0.61755,-0.34622 0,-0.21249 2.47614,-1.35841 4.58558,-2.12215 2.26813,-0.82119 4.20261,-1.3064 7.49492,-1.87989 2.74247,-0.47771 3.77621,-0.5249 8.29242,-0.37856 5.85406,0.18969 8.68141,0.55099 14.2875,1.82577 5.52382,1.25608 14.66225,4.50441 19.05,6.77149 0.50932,0.26316 1.46182,0.71616 2.11666,1.00666 1.55433,0.68952 2.60788,1.78364 2.15429,2.23723 -0.43213,0.43213 -3.67721,0.42287 -7.04908,-0.0201 -8.01037,-1.05238 -11.76952,-1.25923 -15.875,-0.87352 -6.51306,0.61189 -11.62884,2.5226 -14.53492,5.42868 -1.77663,1.77662 -3.49127,4.88413 -4.2486,7.69987 -0.67396,2.50576 -0.81021,8.82743 -0.28229,13.09688 0.52037,4.20837 1.83409,10.45283 2.78317,13.22916 0.12436,0.36381 0.54568,1.73303 0.93626,3.04271 0.39059,1.30969 0.87791,2.75643 1.08295,3.21499 0.20504,0.45855 0.37281,1.01707 0.37281,1.24115 0,0.22408 0.11465,0.47828 0.25478,0.56489 0.14014,0.0866 0.36808,0.54012 0.50654,1.0078 0.13846,0.46769 0.67866,1.85788 1.20042,3.08931 0.52177,1.23144 0.94867,2.34454 0.94867,2.47356 0,0.12902 0.1917,0.63856 0.42601,1.13232 0.40477,0.85299 0.35924,1.72666 -0.087,1.66911 -0.1137,-0.0147 -1.15924,-0.19562 -2.3234,-0.40212 z m 18.91771,-13.96883 c -5.24939,-1.00129 -9.374,-3.1904 -13.44354,-7.13507 -2.83477,-2.74779 -4.2656,-5.1001 -5.23637,-8.60868 -1.72457,-6.23296 0.2313,-11.37659 5.46187,-14.36389 1.68461,-0.96213 2.35872,-1.16842 4.99967,-1.53001 4.1847,-0.57297 9.20147,0.72106 14.27887,3.6831 1.86151,1.08597 6.6395,5.37344 6.6395,5.95788 0,0.17529 0.29321,0.59416 0.65157,0.93083 0.35837,0.33667 1.02235,1.38091 1.47552,2.32053 1.80252,3.7374 2.17684,6.47891 1.32731,9.72109 -0.30415,1.16075 -0.86881,2.58769 -1.25481,3.17097 -1.07037,1.61744 -3.24648,3.6442 -4.64752,4.32855 -3.06312,1.4962 -7.18653,2.10944 -10.25207,1.5247 z"
       id="path886" />
  </g>
</svg>
